<svg xmlns="http://www.w3.org/2000/svg" xmlns:xlink="http://www.w3.org/1999/xlink" viewBox="0,0,256,256" width="100px" height="100px"><g fill="none" fill-rule="nonzero" stroke="none" stroke-width="1" stroke-linecap="butt" stroke-linejoin="miter" stroke-miterlimit="10" stroke-dasharray="" stroke-dashoffset="0" font-family="none" font-weight="none" font-size="none" text-anchor="none" style="mix-blend-mode: normal"><g transform="scale(2.56,2.56)"><path d="M80,77h-60c-3.314,0 -6,-2.686 -6,-6v-42c0,-3.314 2.686,-6 6,-6h60c3.314,0 6,2.686 6,6v42c0,3.314 -2.686,6 -6,6z" fill="#fefdef"></path><path d="M23,77h-3c-3.314,0 -6,-2.686 -6,-6v-42h9z" fill="#6d5bf1"></path><path d="M77,77h3c3.314,0 6,-2.686 6,-6v-42h-9z" fill="#6d5bf1"></path><path d="M82.09,24h-0.004l-32.086,23.5l-32.086,-23.5h-0.004c-1.883,0 -3.41,1.527 -3.41,3.41v1.554c0,1.594 0.76,3.092 2.046,4.034l33.454,24.502l33.454,-24.502c1.286,-0.942 2.046,-2.44 2.046,-4.034v-1.554c0,-1.883 -1.527,-3.41 -3.41,-3.41z" fill="#6d5bf1"></path><path d="M80,78h-60c-3.859,0 -7,-3.14 -7,-7v-42c0,-3.86 3.141,-7 7,-7h60c3.859,0 7,3.14 7,7v42c0,3.86 -3.141,7 -7,7zM20,24c-2.757,0 -5,2.243 -5,5v42c0,2.757 2.243,5 5,5h60c2.757,0 5,-2.243 5,-5v-42c0,-2.757 -2.243,-5 -5,-5z" fill="#1f212b"></path><path d="M50,58c-0.104,0 -0.207,-0.032 -0.296,-0.097l-33.454,-24.502c-1.408,-1.031 -2.25,-2.69 -2.25,-4.437h1c0,1.429 0.688,2.786 1.841,3.63l33.159,24.286l33.158,-24.286c1.154,-0.844 1.842,-2.2 1.842,-3.63h1c0,1.747 -0.842,3.406 -2.251,4.437l-33.453,24.502c-0.089,0.065 -0.192,0.097 -0.296,0.097z" fill="#1f212b"></path><path d="M22.5,74c-0.276,0 -0.5,-0.224 -0.5,-0.5v-33c0,-0.276 0.224,-0.5 0.5,-0.5c0.276,0 0.5,0.224 0.5,0.5v33c0,0.276 -0.224,0.5 -0.5,0.5z" fill="#1f212b"></path><path d="M77.5,62c-0.276,0 -0.5,-0.224 -0.5,-0.5v-21c0,-0.276 0.224,-0.5 0.5,-0.5c0.276,0 0.5,0.224 0.5,0.5v21c0,0.276 -0.224,0.5 -0.5,0.5z" fill="#1f212b"></path><path d="M77.5,70c-0.276,0 -0.5,-0.224 -0.5,-0.5v-5c0,-0.276 0.224,-0.5 0.5,-0.5c0.276,0 0.5,0.224 0.5,0.5v5c0,0.276 -0.224,0.5 -0.5,0.5z" fill="#1f212b"></path><path d="M77.5,74c-0.276,0 -0.5,-0.224 -0.5,-0.5v-1c0,-0.276 0.224,-0.5 0.5,-0.5c0.276,0 0.5,0.224 0.5,0.5v1c0,0.276 -0.224,0.5 -0.5,0.5z" fill="#1f212b"></path><path d="M74.5,30.056c-0.153,0 -0.306,-0.071 -0.403,-0.205c-0.163,-0.223 -0.115,-0.536 0.108,-0.699l2,-1.464c0.221,-0.164 0.535,-0.116 0.698,0.108c0.163,0.223 0.115,0.536 -0.108,0.699l-2,1.464c-0.089,0.066 -0.192,0.097 -0.295,0.097z" fill="#1f212b"></path><path d="M68.5,34.451c-0.153,0 -0.306,-0.071 -0.403,-0.205c-0.163,-0.223 -0.115,-0.536 0.107,-0.699l4,-2.93c0.223,-0.164 0.536,-0.116 0.699,0.108c0.163,0.223 0.115,0.536 -0.107,0.699l-4,2.93c-0.09,0.065 -0.193,0.097 -0.296,0.097z" fill="#1f212b"></path><path d="M50,48c-0.104,0 -0.207,-0.032 -0.296,-0.097l-32.428,-23.75c-0.223,-0.163 -0.271,-0.476 -0.107,-0.699c0.163,-0.224 0.477,-0.271 0.699,-0.108l32.132,23.534l16.089,-11.784c0.224,-0.164 0.536,-0.116 0.699,0.108c0.163,0.223 0.115,0.536 -0.107,0.699l-16.385,12c-0.089,0.065 -0.192,0.097 -0.296,0.097z" fill="#1f212b"></path></g></g></svg>