<?xml version="1.0" encoding="utf-8"?>
<!-- Generator: Adobe Illustrator 27.5.0, SVG Export Plug-In . SVG Version: 6.00 Build 0)  -->
<svg version="1.1" id="Layer_1" xmlns="http://www.w3.org/2000/svg" xmlns:xlink="http://www.w3.org/1999/xlink" x="0px" y="0px"
	 viewBox="0 0 156.75 100.928" style="enable-background:new 0 0 156.75 100.928;" xml:space="preserve">
<g>
	<path style="fill:#5E2C00;" d="M12.019,39.506c4.25-5.623,9.846-9.991,16.065-13.229c0.405-0.211,0.819-0.41,1.23-0.609
		c-0.017-0.112,0.01-0.208,0.153-0.186c0.044,0.008,0.089,0.016,0.133,0.023c0.007,0.001,0.017,0.007,0.024,0.009
		c1.938-0.924,3.924-1.723,5.947-2.404c0.033-0.028,0.066-0.053,0.1-0.081c0.035-0.143,0.142-0.106,0.231-0.026
		c0.02-0.007,0.042-0.013,0.062-0.02c0.007-0.089,0.032-0.17,0.095-0.212c1.435-1.013,2.972-1.769,4.084-3.194
		c1.938-2.477,3.115-4.901,5.514-7.084c5.539-5.038,11.363-7.586,18.537-9.295c0.469-0.112,0.885,0.511,0.869,0.914
		c-0.088,2.227-0.016,2.884,2.291,4.003c1.553,0.753,3.215,1.271,4.861,1.774c3.365,1.029,6.354,2.037,9.363,3.89
		c5.02,3.091,8.105,7.666,9.889,13.175c2.379,1.185,4.68,2.558,6.799,4.125c0.502,0.37,2.174,1.545,3.66,2.678
		c0.973-1.133,2.193-1.697,2.371-3.298c0.131-1.169,0.291-2.301,0.524-3.457c0.408-2.021,1.299-4.074,2.66-5.628
		c2.994-3.417,6.883-5.248,11.232-6.323c5.035-1.246,10.104-0.85,15.119,0.244c5.514,1.199,12.209,5.383,17.531,2.06
		c0.43-0.269,0.986,0.423,0.93,0.825c-0.875,6.126-7.41,9.045-12.025,12.213c-6.197,4.255-10.908,9.648-12.338,17.196
		c-1.68,8.875,4.906,14.491,9.467,21.089c2.762,3.993,5.008,9.602,1.861,13.926c-0.346,0.474-0.992-0.166-1.105-0.539
		c-2.041-6.753-9.852-6.424-15.481-6.519c-3.777-0.063-6.957-1.444-9.9-3.739c-2.416-1.884-4.625-4.728-5.84-7.533
		c-0.854-1.964-1.377-3.934-1.822-6.022c-0.645-3.031-0.443-7.631-2.568-10.117c-3.971,2.86-10.328,3.254-12.107,8.208
		c1.357,3.634,1.482,7.302-0.691,11.414c-2.795,5.287-8.51,8.327-13.898,10.307c-2.523,0.926-5.09,1.639-7.676,2.142
		c2.27,0.355,5.082,1.171,5.602,1.324c2.949,0.86,5.809,2.044,8.51,3.501c3.18,1.714,6.451,4.818,3.625,8.272
		c-3.852,4.709-13.4,5.713-18.43,2.816c-0.939-0.542-1.865-1.137-2.773-1.769c-2.529,1.782-5.67,0.492-7.572-1.64
		c-3.018-3.375-4.015-7.652-4.714-12.001c-6.029-0.745-11.945-2.542-17.477-5.373c-6.506-2.399-12.903-5.144-18.798-8.823
		C11.667,63.72,6.79,60.205,4.822,55.131C2.842,50.026,9.266,43.146,12.019,39.506z"/>
	<path style="fill:#FBB040;" d="M88.471,21.511c-1.221-2.287-3.074-4.044-5.055-5.657c-3.66-2.982-7.857-4-12.277-5.227
		c-2.398-0.666-5.299-1.583-7.109-3.393c-0.818-0.817-0.57-1.67-0.309-2.566c-6.553,1.695-11.785,4.672-16.999,9.141
		c-2.667,2.284-4.315,5.872-6.993,8.067c9.051-2.316,18.665-2.541,27.891-1.549c7.18,0.773,14.316,2.485,20.975,5.295
		c0.711,0.301,1.416,0.628,2.117,0.963C90.068,25.823,88.723,21.984,88.471,21.511z"/>
	<path style="opacity:0.4;fill:#FB9740;" d="M88.936,25.13c-1.389-0.629-2.215-1.129-3.154-2.36c-1.16-1.52-2.391-2.598-4.221-3.254
		c-2.418-0.868-4.951-1.219-7.41-1.933c-1.371-0.396-2.824-0.824-3.973-1.704c-1.139-0.873-2.133-1.907-3.246-2.806
		c-2.783-2.25-6.369-1.781-9.687-2.095c-1.378-0.13-3.57-0.356-5.396-1.037c3.623-2.38,7.445-4.127,11.871-5.273
		c-0.262,0.896-0.51,1.748,0.309,2.566c1.811,1.81,4.711,2.727,7.109,3.393c4.42,1.227,8.617,2.244,12.277,5.227
		c1.98,1.613,3.834,3.371,5.055,5.657c0.215,0.401,1.209,3.208,1.9,4.524C89.963,25.667,89.504,25.39,88.936,25.13z"/>
	<path style="fill:#FBB040;" d="M106.348,58.694c1.31,6.697,5.434,12.741,12.104,14.934c4.896,1.61,10.113-0.202,14.98,2.023
		c2.316,1.059,4.197,2.849,5.268,5.104c3.848-6.803-4.516-14.733-8.402-19.775c-3.266-4.236-4.365-8.951-3.703-14.212
		c0.727-5.768,4.195-10.7,8.416-14.485c4.543-4.071,13.6-7.159,15.857-13.269c-3.869,1.52-7.645-0.12-11.648-1.345
		c-6.652-2.036-13.047-3.258-19.934-1.612c-6.203,1.483-11.49,5.418-13.209,11.711c-0.805,2.94-0.25,6.736-3.012,6.881
		c0.432,0.354,0.801,0.677,1.057,0.938c0.363,0.71,0.822,1.362,1.24,2.033c0.145,0.26,0.27,0.526,0.361,0.8
		c0.748,2.211,0.365,4.458-0.557,6.572c-0.453,1.042-1.113,1.87-1.906,2.565C105.82,50.454,105.645,55.093,106.348,58.694z"/>
	<path style="fill:#FBB040;" d="M65.471,93.721c5.041,3.552,10.41,2.972,15.816,0.72c2.963-1.235,6.18-4.453,2.313-7.314
		c-1.404-1.04-3.061-1.761-4.65-2.462c-4.01-1.766-9.51-3.918-13.924-3.593c-0.146,0.01-0.316-0.155-0.393-0.323
		c-3.584,0.433-7.186,0.472-10.756,0.134c0.101,0.057,0.194,0.144,0.232,0.247C56.096,86.716,60.775,90.408,65.471,93.721z"/>
	<path style="opacity:0.4;fill:#FB9740;" d="M83.6,87.127c-1.404-1.04-3.061-1.761-4.65-2.462c-3.725-1.64-8.723-3.587-12.953-3.6
		c1.041,0.593,2.078,1.192,3.07,1.854c2.473,1.65,6.371,3.904,7.334,6.945c1.131,3.58-3.768,4.411-6.24,4.269
		c-2.629-0.151-5.121-1.103-7.463-2.455c0.91,0.701,1.84,1.383,2.773,2.043c5.041,3.552,10.41,2.972,15.816,0.72
		C84.25,93.206,87.467,89.988,83.6,87.127z"/>
	<path style="fill:#FBB040;" d="M55.908,89.443c0.661,1.387,1.957,3.402,3.422,4.063c1.59,0.718,2.971,0.602,4.537,0.246
		c-4.439-3.278-8.284-7.621-10.297-12.671c-0.047-0.119-0.035-0.19,0.006-0.229c-0.17-0.017-0.336-0.044-0.504-0.063
		c-0.003,0.004-0.003,0.011-0.006,0.017C54.001,83.727,54.574,86.647,55.908,89.443z"/>
	<path style="fill:#FB9740;" d="M51.086,79.582c6.592,1.126,13.482,0.028,19.906-1.529c5.223-1.266,10.287-3.549,14.324-7.127
		c2.602-2.304,4.273-5.36,5.006-8.726c0.859-3.95-1.096-7.738-2.859-11.116c-0.107-0.206,0.121-0.2,0.211-0.056
		c0.914,1.456,1.709,2.887,2.33,4.318c0.725-4.299,7.461-5.931,10.652-7.739c1.236-0.701,2.303-1.726,3.08-2.93
		c1.16-1.353,1.869-3.025,1.541-4.888c-0.285-1.616-1.078-2.794-2.1-3.791c-0.07-0.123-0.139-0.246-0.182-0.357
		c-0.578-0.424-1.154-0.845-1.729-1.262c-0.006-0.002-0.012-0.002-0.02-0.003c-0.051-0.018-0.123-0.073-0.188-0.145
		c-3.908-2.827-7.799-5.445-12.34-7.471c-6.096-2.72-12.764-4.127-19.348-5.004c-11.643-1.553-23.758-0.846-34.883,3.053
		c-0.76,0.267-1.507,0.553-2.24,0.855c0.322,0.139,0.643,0.324,1.012,0.612c1.894,1.482,3.375,3.185,4.797,5.118
		c3.424,4.655,5.909,9.965,7.996,15.33c1.291,3.316,1.622,6.727,1.186,10.027c1.477-1.895,11.733-4.48,13.48-3.884
		c3.389,1.153,5.131,3.926,5.25,7.455c0.152,4.515-3.664,5.419-7.4,5.04c-4.605-0.465-8.389-3.529-11.719-6.487
		c-1.51,6.448-5.887,12.276-11.638,15.862C40.365,76.815,45.578,78.641,51.086,79.582z"/>
	<path style="opacity:0.4;fill:#FB9740;" d="M49.605,55.315c-0.086-3.431-0.398-6.809-1.994-10.122
		c-1.557-3.229-3.732-6.223-6.331-8.771c1.861,3.3,3.407,6.788,4.774,10.303c1.291,3.316,1.622,6.727,1.186,10.027
		C47.597,56.295,48.47,55.798,49.605,55.315z"/>
	<path style="opacity:0.4;fill:#FB9740;" d="M105.277,39.79c-0.285-1.616-1.078-2.794-2.1-3.791
		c-0.07-0.123-0.139-0.246-0.182-0.357c-0.578-0.424-1.154-0.845-1.729-1.262c-0.006-0.002-0.012-0.002-0.02-0.003
		c-0.051-0.018-0.123-0.073-0.188-0.145c-0.193-0.139-0.387-0.27-0.578-0.408c-0.545,2.688-1.609,5.32-3.197,7.5
		c-1.086,1.494-2.332,2.909-3.789,4.059c-1.695,1.34-3.76,2.086-5.414,3.432c-0.234,0.19-0.578,0.244-0.807,0
		c-1.867-2.004-3.693-4.075-5.721-5.915c2.174,7.72,2.74,16.243-5.025,21.176c-5.672,3.605-14.535,5.483-21.18,3.765
		c-2.855-0.738-5.334-2.379-5.563-5.574c-0.023-0.326-0.042-0.652-0.058-0.977c-0.999-0.776-1.958-1.597-2.878-2.415
		c-1.51,6.448-5.887,12.276-11.638,15.862c5.151,2.077,10.364,3.903,15.872,4.844c6.592,1.126,13.482,0.028,19.906-1.529
		c5.223-1.266,10.287-3.549,14.324-7.127c2.602-2.304,4.273-5.36,5.006-8.726c0.859-3.95-1.096-7.738-2.859-11.116
		c-0.107-0.206,0.121-0.2,0.211-0.056c0.914,1.456,1.709,2.887,2.33,4.318c0.725-4.299,7.461-5.931,10.652-7.739
		c1.236-0.701,2.303-1.726,3.08-2.93C104.896,43.326,105.605,41.653,105.277,39.79z"/>
	<path style="fill:#FBB040;" d="M104.967,42.587c-2.211-6.067-9.486-9.718-15.137-11.791c-10.732-3.933-22.49-6.165-33.916-6.581
		c-7.27-0.265-14.331,1.076-21.105,3.416c-0.488-0.468-0.996-0.923-1.547-1.354c-0.369-0.288-0.689-0.473-1.012-0.612
		c0.733-0.302,1.48-0.588,2.24-0.855c11.125-3.899,23.24-4.607,34.883-3.053c6.584,0.877,13.252,2.284,19.348,5.004
		c4.541,2.026,8.432,4.644,12.34,7.471c0.064,0.071,0.137,0.127,0.188,0.145c0.008,0.001,0.014,0.001,0.02,0.003
		c0.574,0.417,1.15,0.838,1.729,1.262c0.043,0.111,0.111,0.235,0.182,0.357c1.021,0.997,1.815,2.174,2.1,3.791
		c0.178,1.012,0.043,1.966-0.297,2.845C104.975,42.619,104.971,42.603,104.967,42.587z"/>
	<path style="fill:#C0C2C4;" d="M90.234,54.519c-0.1,0.265-0.182,0.538-0.23,0.828c-0.621-1.432-1.416-2.862-2.33-4.318
		c-0.047-0.076-0.131-0.11-0.185-0.098c-0.506-1.233-1.111-2.43-1.762-3.608C87.668,49.338,89.053,51.904,90.234,54.519z"/>
	<path style="fill:#C0C2C4;" d="M43.874,65.997c0.031-0.036,0.066-0.067,0.094-0.101c-0.489,1.818-0.842,3.748-1.77,5.338
		c-0.447,0.77-1.422,1.929-0.694,2.846c1.034,1.303,4.069,1.272,5.603,1.602c6.712,1.437,13.83,1.592,20.531-0.015
		c6.695-1.603,13.377-4.949,17.787-10.39c2.137-2.637,3.766-5.952,3.379-9.446c-0.16-1.427-0.519-2.784-1.002-4.096
		c1.662,3.21,3.326,6.766,2.522,10.464c-0.732,3.366-2.404,6.422-5.006,8.726c-4.037,3.578-9.102,5.861-14.324,7.127
		c-6.424,1.557-13.315,2.655-19.906,1.529c-5.508-0.941-10.721-2.767-15.872-4.844C38.735,72.544,41.729,69.503,43.874,65.997z"/>
	<path style="fill:#FBB040;" d="M47.049,58.073c2.469,2.029,4.77,3.977,7.775,5.214c3.143,1.293,8.766,2.196,9.965-2.354
		c0.908-3.446-2.482-6.943-5.902-7.086c-1.588-0.067-3.079,0.437-4.562,0.907c-2.394,0.76-4.632,1.838-7.104,2.316
		C47.17,57.408,47.113,57.74,47.049,58.073z"/>
	<path style="fill:#FBB040;" d="M9.491,60.426c2.327,2.233,5.154,4.043,7.885,5.738c5.263,3.273,11.091,5.492,16.739,7.995
		c0.007-0.005,0.007-0.016,0.014-0.021c3.331-3.01,6.418-4.968,8.666-9.076C45.73,59.7,47.154,53.85,45.321,47.9
		c-1.532-4.976-4.041-9.797-6.802-14.192c-1.365-2.171-2.894-4.173-4.754-5.94c-0.334-0.317-2.27-0.55-3.526-1.208
		c-9.606,4.504-16.838,12.022-22.442,21.194c-0.662,1.086-1.24,2.205-1.774,3.357C4.384,54.64,7.077,58.109,9.491,60.426z"/>
	<path style="opacity:0.4;fill:#FBB040;" d="M45.76,49.649c-0.084,0.907-0.239,1.816-0.373,2.714
		c-0.48,3.222-1.582,6.607-3.668,9.173c-2.875,3.539-8.978,8.455-13.848,6.994c-0.372-0.112-0.603-0.672-0.251-0.952
		c2.02-1.61,3.624-3.586,4.937-5.762c-3.935,3.561-8.833,5.25-14.336,2.901c-3.817-1.629-7.402-4.103-10.144-7.244
		c-0.743-0.852-1.592-1.754-2.37-2.714c0.543,2.175,2.219,4.164,3.785,5.667c2.327,2.233,5.154,4.043,7.885,5.738
		c5.263,3.273,11.091,5.492,16.739,7.995c0.007-0.005,0.007-0.016,0.014-0.021c3.331-3.01,6.418-4.968,8.666-9.076
		C45.441,60.226,46.852,54.994,45.76,49.649z"/>
	<path style="fill:#FBB040;" d="M32.79,52.974c-0.242,0.52-1.086,0.258-1.062-0.288c0.146-3.48,0.698-7.773-2.467-10.226
		c-2.571-1.992-6.267-1.998-9.048-0.352c-2.602,1.54-4.731,4.36-4.74,7.512c-0.013,3.888,2.278,6.236,5.767,7.551
		c0.486,0.183,0.598,0.966,0,1.099c-0.658,0.146-1.292,0.263-1.924,0.359c3.714,1.558,8.941,2.08,12.03-0.881
		c3.082-2.955,5.243-8.359,2.451-12.067C33.801,48.199,33.906,50.572,32.79,52.974z"/>
	<path style="fill:#FBB040;" d="M23.736,32.382c-2.975,1.515-5.824,3.284-8.44,5.317c4.228-4.608,9.152-8.423,14.943-11.14
		c1.257,0.658,3.192,0.891,3.526,1.208c0.06,0.054,0.111,0.116,0.17,0.172C30.455,29.189,27.051,30.694,23.736,32.382z"/>
	<path style="fill:#C0C2C4;" d="M12.991,62.071c4.177,2.812,8.687,5.111,13.349,7.004c4.021,1.634,8.164,3.297,12.213,1.227
		c-1.383,1.265-2.876,2.438-4.424,3.836c-0.007,0.005-0.007,0.016-0.014,0.021c-5.648-2.503-11.476-4.722-16.739-7.995
		c-2.731-1.695-5.558-3.505-7.885-5.738C8.487,59.462,7.44,58.3,6.674,57.017C8.608,58.945,10.841,60.624,12.991,62.071z"/>
	<g>
		<path style="fill:#5E2C00;" d="M17.001,49.486c0,4.063,3.293,7.355,7.356,7.355c4.061,0,7.354-3.292,7.354-7.355
			c0-4.062-3.293-7.355-7.354-7.355C20.294,42.131,17.001,45.424,17.001,49.486z"/>
		<path style="fill:#FFFFFF;" d="M17.881,49.486c0,3.576,2.899,6.475,6.476,6.475c3.575,0,6.475-2.899,6.475-6.475
			c0-3.577-2.899-6.474-6.475-6.474C20.78,43.012,17.881,45.909,17.881,49.486z"/>
		<path style="fill:#5E2C00;" d="M18.918,49.486c0,2.821,2.286,5.106,5.108,5.106c2.822,0,5.108-2.285,5.108-5.106
			c0-2.821-2.286-5.107-5.108-5.107C21.204,44.378,18.918,46.665,18.918,49.486z"/>
		<path style="fill:#FFFFFF;" d="M22.853,47.392c0,1.156,0.936,2.094,2.093,2.094c1.157,0,2.095-0.938,2.095-2.094
			c0-1.157-0.938-2.095-2.095-2.095C23.789,45.297,22.853,46.235,22.853,47.392z"/>
	</g>
	<path style="fill:#5E2C00;" d="M20.644,58.663c3.558-0.144,6.338-0.027,9.497-1.988c2.589-1.606,4.082-4.634,3.746-7.66
		c-0.014-0.13,0.148-0.03,0.169,0.037c0.957,2.975-0.286,5.906-2.497,7.97c-3.07,2.869-6.983,2.959-10.824,2.009
		C20.604,58.997,20.421,58.672,20.644,58.663z"/>
	<path style="fill:#5E2C00;" d="M17.202,66.235c5.08,2.927,11.934,0.283,14.829-4.473c0.08-0.134,0.292,0.1,0.241,0.213
		c-2.625,5.875-9.788,8.65-15.121,4.435C17.068,66.346,17.062,66.154,17.202,66.235z"/>
	<path style="fill:#5E2C00;" d="M46.42,57.763c0.094-0.015,0.19-0.018,0.284-0.03c0.011-0.057,0.04-0.106,0.106-0.134
		c3.378-1.406,7.012-1.772,10.592-2.428c0.031-0.006,0.078,0.06,0.039,0.07c-1.732,0.512-3.492,0.932-5.234,1.42
		c-0.028,0.008-0.055,0.017-0.084,0.023c0.291-0.017,0.576-0.035,0.853-0.052c1.176-0.082,2.361-0.028,3.538-0.11
		c0.358-0.023,2.445-0.003,2.578,0.154c-0.037-0.043-0.006-0.1,0.045-0.057c0.021,0.019,0.045,0.037,0.066,0.056
		c0.018,0.015,0.064,0.096,0.014,0.102c-1.727,0.206-3.498,0.336-5.252,0.525c-0.648,0.07-1.299,0.18-1.949,0.295
		c3.039,0.193,6.097,0.741,9.006,1.187c0.105,0.016,0.262,0.268,0.094,0.266c-3.462-0.058-7.021-0.179-10.533-0.372
		c0.775,0.327,1.542,0.674,2.311,0.942c2.785,0.966,5.807,1.815,8.732,2.174c0.166,0.02,0.4,0.397,0.145,0.406
		c-3.895,0.141-7.844-1.142-11.492-2.651c0.576,0.318,1.154,0.637,1.744,0.931c1.498,0.744,3.414,1.916,5.102,2.135
		c0.085,0.01,0.271,0.25,0.125,0.273c-1.471,0.212-3.336-0.796-4.613-1.388c-1.713-0.792-3.875-1.603-5.164-3.011
		c-0.247-0.016-0.495-0.029-0.74-0.047C46.5,58.423,46.069,57.814,46.42,57.763z"/>
	<path style="fill:#5E2C00;" d="M61.445,80.179c0.453-0.081,0.775,0.258,1.148,0.487c0.221,0.133,0.438,0.275,0.654,0.414
		c-0.121-0.265-0.121-0.561,0.248-0.452c0.225,0.066,0.443,0.147,0.668,0.217c-0.07-0.112-0.09-0.244,0.066-0.251
		c3.426-0.192,7.424,1.36,10.445,2.897c2.736,1.392,6.281,2.936,8.326,5.314c0.002,0.001,0.004,0.002,0.004,0.002
		c0.006,0.005,0.006,0.009,0.012,0.012c0.012,0.014,0.025,0.026,0.039,0.04c0.002,0.005,0.004,0.009,0.008,0.014
		c0.004,0.007,0.01,0.014,0.016,0.022c0.072,0.105,0.066,0.199,0.014,0.248c-0.035,0.053-0.105,0.064-0.203-0.002
		c-0.006-0.002-0.008-0.004-0.012-0.006c-0.01-0.007-0.018-0.009-0.027-0.018c-4.361-3.669-10.043-5.347-15.43-7.08
		c3.793,1.609,7.301,3.801,10.674,6.177c0.17,0.119,0.246,0.544-0.045,0.365c-2.148-1.319-4.299-2.479-6.535-3.652
		c-2.139-1.12-4.516-1.813-6.689-2.839c0.285,0.186,0.568,0.374,0.854,0.553c1.055,0.666,2.15,1.29,3.148,2.039
		c0.814,0.608,1.771,1.628,2.717,1.992c0.104,0.041,0.307,0.358,0.084,0.348c-0.375-0.017-0.73-0.265-1.033-0.462
		c-1.25-0.813-2.51-1.595-3.793-2.35c-1.678-0.987-4.074-1.95-5.354-3.462C61.354,80.632,61.176,80.229,61.445,80.179z"/>
	<path style="fill:#5E2C00;" d="M60,80.557c2.414,1.385,4.295,3.854,6.57,5.484c2.377,1.702,4.918,4.051,7.52,5.32
		c0.164,0.08,0.289,0.531,0.006,0.42c-2.971-1.185-5.807-3.547-8.434-5.362c-1.934-1.336-4.992-3.391-5.945-5.632
		C59.623,80.564,59.814,80.449,60,80.557z"/>
	<path style="fill:#5E2C00;" d="M57.449,80.455c0.854,0.912,1.563,2.027,2.391,2.981c0.918,1.061,1.783,2.215,2.82,3.163
		c0.096,0.088,0.111,0.354-0.066,0.229c-1.281-0.882-2.375-2.025-3.467-3.122c-0.798-0.805-2.246-2.002-2.371-3.193
		C56.701,79.989,57.253,80.246,57.449,80.455z"/>
	<path style="fill:#5E2C00;" d="M55.135,80.372h0.008c0.039,0.004,0.088,0.04,0.133,0.087c0-0.006-0.002-0.014-0.002-0.02
		c0.55,0.495,1.024,1.076,1.534,1.615c0.554,0.583,1.093,1.172,1.485,1.879c0.218,0.392-0.107,0.659-0.445,0.361
		c-1.139-0.999-2.127-2.326-2.785-3.686C55.026,80.53,54.992,80.356,55.135,80.372z"/>
	<path style="fill:#5E2C00;" d="M102.852,46.735c-0.002-0.004-0.004-0.005-0.006-0.009c-0.029-0.054-0.041-0.106-0.031-0.153
		c-0.008-0.14,0.057-0.243,0.223-0.207c0.15-0.101,0.295-0.21,0.439-0.317c0.008-0.026,0.014-0.051,0.029-0.073
		c-0.018-0.096,0.008-0.178,0.123-0.216c0.033-0.011,0.066-0.018,0.102-0.027c-0.002-0.02,0.006-0.038,0.008-0.058
		c-0.066,0.044-0.131,0.09-0.201,0.128c-0.244,0.134-0.609-0.271-0.488-0.512c1.941-3.855,2.809-7.495,3.135-11.806
		c0.238-3.198,1.113-6.666,3.156-9.17c0.055-0.068,0.188,0.095,0.152,0.159c-2.072,3.839-2.166,8.351-2.621,12.605
		c-0.014,0.121-0.027,0.254-0.041,0.385c0.877-3.642,1.422-7.452,2.918-10.847c2.156-4.897,5.859-8.31,11.318-8.603
		c0.076-0.004,0.193,0.174,0.094,0.202c-6.328,1.732-9.092,5.913-11.406,11.774c-1.686,4.269-1.309,10.818-4.539,14.464
		c3.113-3.453,4.543-8.526,6.816-12.442c1.221-2.102,2.709-4.08,4.392-5.832c1.885-1.966,4.6-2.192,7.09-2.791
		c0.063-0.014,0.15,0.107,0.08,0.142c-3.135,1.5-5.584,2.192-7.762,5.127c-1.74,2.349-3.275,4.846-4.504,7.5
		c-0.605,1.309-1.357,3.171-2.301,4.987c5.26-5.688,9.221-12.997,18.35-12.188c0.023,0.001,0.068,0.065,0.033,0.07
		c-5.354,0.704-9.576,3.511-13.137,7.435c-1.416,1.56-2.828,3.775-4.436,5.731c3.127-1.859,5.977-4.061,9.254-5.923
		c0.07-0.041,0.188,0.096,0.125,0.155c-2.076,1.997-4.303,3.937-6.629,5.634c-0.457,0.333-0.941,0.68-1.439,1.021
		c1.703-0.438,3.383-0.958,5.01-1.879c0.047-0.025,0.121,0.062,0.082,0.101c-1.588,1.568-3.756,2.754-6.029,3.412
		c0.51,0.049,1.031,0.107,1.572,0.17c4.147,0.476,8.037,0.584,12.174-0.167c0.152-0.028,0.393,0.287,0.203,0.361
		c-2.684,1.041-5.285,1.468-8.152,1.362c-2.25-0.082-4.353-0.485-6.441-0.565c2.539,1.287,4.875,3.314,6.408,5.102
		c0,0.001,0.002,0.002,0.002,0.003c0.012,0.012,0.025,0.026,0.035,0.04c0.094,0.11,0.135,0.401-0.096,0.323
		c-0.023-0.008-0.045-0.017-0.066-0.024c-0.104-0.036-0.336-0.327-0.15-0.394c-1.111-0.81-4.766-3.26-5.15-3.511
		c-1.037-0.676-2.225-0.953-3.422-1.205c1.621,0.796,3.123,2.183,4.205,3.208c2.688,2.543,4.537,5.668,6.59,8.706
		c0.156,0.233-0.119,0.309-0.264,0.131c-1.633-2.006-3.164-4.084-4.869-6.034c-2.373-2.708-4.982-4.393-8.283-5.576
		c-0.078,0.032-0.158,0.064-0.236,0.096c2.086,0.984,3.953,3.471,5.303,5.069c1.176,1.392,2.371,2.752,3.455,4.217
		c0.961,1.301,1.775,2.951,3.078,3.958c0.072,0.055,0.076,0.207-0.041,0.146c-1.951-1.037-3.289-3.464-4.662-5.088
		c-1.51-1.787-3.324-4.297-5.393-5.996c1.529,2.206,2.508,5.103,3.627,7.205c3.223,6.048,8.688,13.623,16.602,13.108
		c0.039-0.002,0.107,0.098,0.051,0.111c-4.453,1.108-9.701-2.308-12.777-5.265c-4.408-4.236-5.383-11.175-9.158-15.789
		c0.742,1.413,1.227,2.836,1.697,4.487c0.908,3.172,2.559,6.243,4.023,9.189c3.354,6.752,9.475,10.881,17.113,10.44
		c0.16-0.01,0.404,0.387,0.195,0.424c-5.246,0.917-10.777-0.784-14.394-4.719c-5.555-6.039-6.258-14.288-10.098-21.125
		C102.781,46.92,102.789,46.8,102.852,46.735z"/>
	<path style="fill:#5E2C00;" d="M49.171,30.885c1.554,0.827,3.264,1.417,4.615,2.587c0.644,0.557,1.95,1.614,1.739,2.626
		c-0.193,0.925-0.706,1.728-0.971,2.639c-0.077,0.262,0.36,1.001,0.658,0.688c1.273-1.343,1.551-2.652,1.205-3.836
		c1.011,0.477,2.095,0.828,2.955,1.574c1.385,1.2,2.506,2.921,1.279,4.68c-0.543,0.779-1.223,1.091-1.902,1.642
		c-1.086-1.007-2.494-1.723-3.824-2.299c-0.037-0.029-0.074-0.051-0.104-0.056c-0.023-0.002-0.044-0.004-0.065-0.007
		c-0.303-0.039-0.033,0.396,0.063,0.463c1.538,1.085,4.829,2.793,4.241,5.119c-0.354,1.392-1.135,2.626-1.363,4.047
		c-0.029,0.193,0.31,0.667,0.525,0.466c1.463-1.379,2.836-3.98,1.857-5.997c-0.182-0.374-0.416-0.71-0.674-1.03
		c1.658,0.259,4.234,1.318,5.01,2.885c0.641,1.289,0.639,2.122,0.02,3.356c-0.23,0.462-0.4,0.892-0.543,1.383
		c-0.039,0.137,0.211,0.433,0.35,0.31c1.83-1.611,2.357-3.923,0.727-5.914c-0.836-1.021-2.504-2.327-4.082-2.637
		c1.389-1.044,1.908-3.205,0.91-4.816c-0.18-0.291-0.373-0.579-0.58-0.857c0.182,0.022,0.377,0.015,0.639,0.022
		c1.156,0.037,2.307,0.331,3.293,0.965c1.098,0.706,2.17,1.777,2.498,3.097c0.449,1.807-0.568,2.702-1.521,3.904
		c-0.139,0.174,0.229,0.569,0.418,0.437c2.07-1.458,2.342-3.878,1.219-5.892c0.049,0.03,0.098,0.05,0.143,0.051
		c2.373,0.026,3.744-3.256,2.562-5.162c-1.01-1.629-3.355-3.162-5.318-2.516c-0.016-0.002-0.031-0.008-0.045-0.006
		c-1.434-2-4.314-3.496-6.525-3.276c-0.086-0.199-0.182-0.399-0.297-0.6c-1.451-2.502-5.113-3.392-7.746-3.43
		c-0.122-0.003-0.021,0.178,0.049,0.197c2.031,0.517,3.979,1.171,5.688,2.425c2.592,1.902,1.895,4.807-0.51,6.162
		c-1.392-1.939-4.342-3.351-6.629-3.687C48.953,30.569,49.098,30.845,49.171,30.885z M64.902,37.734
		c1.338-1.368,1.33-2.92,0.592-4.304c1.412-0.005,3.588,0.775,4.205,2.095c0.961,2.052-0.848,3.228-2.127,4.381
		c-0.039,0.037-0.053,0.082-0.059,0.129c-0.125-0.187-0.258-0.373-0.408-0.55C66.502,38.777,65.742,38.171,64.902,37.734z
		 M56.802,34.773c1.688-1.022,2.503-2.755,1.996-4.624c1.548,0.411,3.067,0.702,4.341,1.806c0.758,0.658,2.186,2.067,1.953,3.232
		c-0.156,0.772-0.459,1.407-0.769,2.118c-0.02,0.043-0.016,0.103,0,0.163c-0.047-0.018-0.092-0.044-0.141-0.063
		c-1.299-0.49-2.268-0.366-3.598-0.292c-0.008-0.003-0.012,0-0.021,0c-0.529-0.578-1.135-1.081-1.84-1.434
		C58.275,35.453,57.516,35.001,56.802,34.773z"/>
	<path style="fill:#5E2C00;" d="M43.248,20.692c1.363-2.699,3.574-4.955,5.672-7.095c2.203-2.248,4.416-3.847,7.565-4.293
		c0.064-0.01,0.162,0.112,0.086,0.15c-2.8,1.365-4.916,2.572-7.041,4.896c-2.033,2.224-3.824,4.597-5.784,6.864
		C43.555,21.434,43.14,20.907,43.248,20.692z"/>
	<path style="fill:#5E2C00;" d="M47.537,17.367c1.416-1.399,2.822-2.883,4.668-3.706c0.045-0.019,0.105,0.072,0.072,0.106
		c-1.281,1.29-2.525,2.604-3.76,3.938c-1.092,1.178-1.997,2.531-3.061,3.707c-0.156,0.314-0.627-0.283-0.62-0.493
		C44.879,19.67,46.74,18.155,47.537,17.367z"/>
	<path style="fill:#5E2C00;" d="M56.26,19.278c1.006-1.285,2.489-2.323,3.711-3.41c1.258-1.118,2.594-2.128,4.051-2.965
		c0.057-0.032,0.143,0.072,0.098,0.12c-1.158,1.21-2.363,2.396-3.586,3.54c-1.189,1.111-2.318,2.605-3.83,3.264
		C56.492,19.919,56.113,19.466,56.26,19.278z"/>
	<path style="fill:#5E2C00;" d="M53.684,19.525c0.586-0.859,1.451-1.551,2.213-2.254c0.927-0.854,1.998-1.596,3.035-2.302
		c0.092-0.063,0.27,0.127,0.203,0.21c-0.728,0.916-1.6,1.661-2.457,2.454c-0.826,0.765-1.604,1.857-2.658,2.308
		C53.855,20.012,53.584,19.672,53.684,19.525z"/>
	<path style="fill:#5E2C00;" d="M66.463,19.492c0.631-0.588,1.549-1.002,2.275-1.48c0.33-0.217,0.658-0.432,1.002-0.625
		c0.424-0.239,0.924-0.288,1.348-0.531c0.063-0.037,0.172,0.099,0.109,0.137c-0.74,0.468-1.369,0.976-1.996,1.593
		c-0.625,0.613-1.418,1.376-2.301,1.551C66.637,20.188,66.223,19.715,66.463,19.492z"/>
	<path style="fill:#FBB040;" d="M126.594,46.769c-0.662,5.261,0.438,9.976,3.703,14.212c1.328,1.725,3.18,3.786,4.889,6.025
		c-3.021-2.317-6.408-4.195-9.094-6.931c-3.16-3.222-4.713-7.252-4.23-11.793c1.041-9.841,8.52-16.44,16.504-21.332
		c2.738-1.678,5.721-2.832,8.484-4.447c1.389-0.809,2.811-1.766,3.809-3.022c-2.539,5.798-11.225,8.84-15.648,12.803
		C130.789,36.068,127.32,41.001,126.594,46.769z"/>
</g>
</svg>
