<?xml version="1.0" encoding="utf-8"?>
<svg xmlns="http://www.w3.org/2000/svg" width="153.81px" height="245.6px">
<g fill="none" stroke-width="3.521" stroke-miterlimit="10">
	<circle stroke="#0081C8" cx="23" cy="200.86" r="21.24"/>
	<circle stroke="#EE334E" cx="122.65" cy="200.86" r="21.24"/>
	<circle stroke="#00A651" cx="97.63" cy="221.84" r="21.24"/>
	<path stroke="#EE334E" d="M122.65,222.1c-2.68,0-5.24-0.49-7.59-1.4"/>
	<circle stroke="#000000" cx="72.94" cy="200.86" r="21.24"/>
	<path stroke="#00A651" d="M76.63,225.02c-0.35-2.33-0.31-4.64,0.07-6.84"/>
	<circle stroke="#FCB131" cx="47.84" cy="221.89" r="21.24"/>
	<path stroke="#000000" d="M72.94,222.1c-2.87,0-5.6-0.57-8.1-1.6"/>
	<path stroke="#0081C8" d="M43.91,197.13c0.43,2.4,0.45,4.92,0,7.46"/>
</g>
<path d="M69.8,92.01c0.07,1.92-1.42,3.53-3.33,3.6c-0.09,0-0.18,0-0.27,0H3.6c-1.92,0.07-3.53-1.42-3.6-3.33c0-0.09,0-0.18,0-0.27v-62.7c-0.07-1.92,1.42-3.53,3.33-3.6c0.09,0,0.18,0,0.27,0h23.2c1.92-0.07,3.53,1.42,3.6,3.33c0,0.09,0,0.18,0,0.27v36.1c-0.11,1.65,1.13,3.09,2.79,3.2c0.14,0.01,0.28,0.01,0.41,0h32.6c1.92-0.07,3.53,1.42,3.6,3.33c0,0.09,0,0.18,0,0.27L69.8,92.01z M44.9,127.01v-3.8l-2.5-2.5H25.9l-2.5,2.5v4H0v-15.9l10.6-10.6h48.7l10.6,10.6v23l-7.1,7.1l-30.7,8.8h37.8v20.4H0v-25.2l7.1-7.1L44.9,127.01z M84.9,135.81c-8.3-2.9-11.9-7.9-11.9-15.2c0-13.6,11.9-20.6,37.6-20.6s37.6,7.1,37.6,20.6c0,7.3-3.6,12.3-11.9,15.2c9,3,12.9,8.3,12.9,16c0,13.6-12.1,20.5-38.6,20.5s-38.6-7-38.6-20.5C72,144.11,75.9,138.81,84.9,135.81z M110.6,154.41c7.5,0,11.3-1.8,11.3-5.3s-3.9-5.4-11.3-5.4s-11.2,1.9-11.2,5.4S103.3,154.41,110.6,154.41z M121.4,122.81c0-3.5-3.7-5.3-10.8-5.3c-6.8,0-10.7,1.9-10.7,5.3s3.9,5.4,10.7,5.4C117.6,128.21,121.4,126.31,121.4,122.81z M143.4,167.71h2.2v0.3h-0.9v2.6h-0.4v-2.6h-0.9L143.4,167.71L143.4,167.71z M146.5,170.61h-0.4v-3h0.5l0.6,1.2l0.6-1.2h0.5v2.9h-0.4v-2.4l-0.7,1.4l-0.7-1.4L146.5,170.61L146.5,170.61z"/>
<linearGradient id="SVGID1" gradientUnits="userSpaceOnUse" x1="-71.244" y1="173.1736" x2="-70.2414" y2="173.1736" gradientTransform="matrix(95.0571 0 0 -108.3713 6830.6377 18821.8848)">
	<stop  offset="0" style="stop-color:#FF15CB"/>
	<stop  offset="0.11" style="stop-color:#FE5088"/>
	<stop  offset="0.22" style="stop-color:#FE834E"/>
	<stop  offset="0.31" style="stop-color:#FDA824"/>
	<stop  offset="0.38" style="stop-color:#FDBF0B"/>
	<stop  offset="0.43" style="stop-color:#FDC701"/>
	<stop  offset="0.46" style="stop-color:#FDC800"/>
	<stop  offset="0.7" style="stop-color:#3FFFEC"/>
</linearGradient>
<path fill="url(#SVGID1)" d="M100.1,1.81c-0.2-0.2-0.4-0.1-0.5-0.4l0.1-0.1c2.84,0.48,5.52,1.65,7.8,3.4c0.56,0.45,1.31,0.6,2,0.4c0.3-0.1,0.5,0.1,0.7,0.3c0.8,0.6,1.7,1.2,2.5,1.9c2.1,2,4.5,3.8,5.5,6.8c0.5-0.6,1-0.9,0.9-1.6c0.02-0.21,0.09-0.42,0.2-0.6c1.72-2.45,3.89-4.56,6.4-6.2c0.38-0.25,0.84-0.36,1.3-0.3c0.6,0.2,1.2-0.2,1.7-0.5c1.7-1,3.8-1,5.6-1.5c-0.2,0.1-0.3,0.3-0.5,0.4c1-0.1,1.8-0.9,3-0.4c-1.1,0.9-2.1,2-3.1,2.9c-1.22,1.03-2.18,2.33-2.8,3.8c-0.6,1.9-1.6,3.8-1.8,5.8c-0.7,5.1-0.1,10.2,0.5,15.3c0.6,5.33,1.3,10.63,2.1,15.9c0.9,5.9,2.1,11.8,3.4,17.7c1.44,6.33,3.24,12.58,5.4,18.7c0.25,0.92,0.45,1.86,0.6,2.8c0.1,0.5,0.2,0.9,0.8,0.3c0.5-0.4,1.1-0.8,1.8-1.3c-0.3,1.1-1.1,1.7-1.5,2.5c0.5,0,0.6-0.5,0.8-0.7c1.4-1.2,3.1-1.2,4.8-1.1c0.3,0,0.6,0.2,0.9,0c0.72-0.45,1.6-0.56,2.4-0.3c0.57,0.26,1.25,0.14,1.7-0.3c0.2-0.2,0.5-0.4,0.7-0.1s0,0.5-0.2,0.7c-0.9,1.3-1.9,2.5-2.8,3.8c-2.53,3.45-4.18,7.47-4.8,11.7c-0.2,1.2-0.5,2.4-0.7,3.6c-0.03,0.93-0.57,1.77-1.4,2.2c-0.61,0.29-1.13,0.74-1.5,1.3c-0.2,0.4-0.6,0.4-1,0.3c-1.37-0.42-2.85-0.38-4.2,0.1c-0.5,0.02-1-0.02-1.5-0.1c-1.3,0.1-2.6,0.1-3.9,0c-0.44-0.01-0.85-0.24-1.1-0.6c-0.51-0.76-0.88-1.61-1.1-2.5c-0.4-1.6-0.9-3.2-1.3-4.8c-0.1-0.4-0.2-0.8,0.1-1.1c0.18-0.3,0.22-0.67,0.1-1c-0.4,0.1-0.1,0.6-0.5,0.8c-0.6-2.1-1.1-4.2-1.7-6.4c-1.3-4.7-2.4-9.4-3.4-14.1c-1.1-5-1.8-10.1-2.9-15.1c-1-4.6-1.9-9.2-2.9-13.8c-0.2-0.7,0.4-1,0.3-1.7c-1.6-8.1-2-16.2-2.3-24.4c0-0.2,0.1-0.6-0.2-0.6s0,0.4-0.4,0.5c-0.7-1-1.4-2-2.1-3.1c-0.2-0.3-0.4-0.6-0.8-0.5s-0.4,0.5-0.4,0.7c-1.2,6.3-2.7,12.6-3.8,18.9c-0.8,4.3-1.8,8.6-2.9,12.8c-0.3,1-0.4,2-0.6,2.9s0,1.1,0.9,1.2c0.94,0.08,1.87,0.22,2.8,0.4c0.33-0.06,0.65,0.1,0.8,0.4c-1.31-0.1-2.62,0-3.9,0.3c0.9,0.2,1.8,0.4,2.6,0.5c3.27,0.55,6.6,0.65,9.9,0.3c0.2,0,0.3-0.1,0.4,0.1s0,0.3-0.1,0.5s-0.6,0.5-0.6,1c0,0.3-0.3,0.5,0.2,0.6c0.3,0.1,0.2,0.4,0.1,0.6c-0.2,0.4-0.5,1-0.9,1c-0.6,0-1.1,0.4-1.6,0.5c0.3,0,0.7,0.1,1,0.1c-2.7,1.4-5.5,0.3-8.2,0.6c1.46,0.44,2.98,0.65,4.5,0.6c1.55,0.18,3.12,0.01,4.6-0.5c-0.1,0.9-1.1,0.8-1.4,1.4c0.5,0.3,0.9-0.6,1.5-0.1c-1.8,2.11-4.55,3.17-7.3,2.8c1.3,0.5,2.6,0.1,3.9,0.4c-0.9,1.3-2.2,1.2-3.4,1.1c-2.4-0.1-4.7-0.3-7.1-0.5c-0.5-0.1-0.7,0.2-0.8,0.7c-0.5,2.9-1.1,5.7-1.6,8.5s-1.1,5.4-1.6,8.1c-0.1,0.3,0,0.7-0.5,0.7s-0.4,0.4-0.4,0.7s0,0.7-0.5,1c1.1-6.7,1.7-13.3,2.6-19.9c-0.6,0.2-0.6,0.6-0.6,1l-1.5,12c-0.2,1.6-0.5,3.2-0.8,4.8c-0.06,0.77-0.42,1.49-1,2c-0.6,0.4-0.3,1.2,0.4,1.5c0.57,0.19,1.11,0.45,1.6,0.8c0.4,0.3,1,0.4,1.7,0.8c-1.1,0-1.7-0.8-2.7-0.6c0.5,0.8,1.4,0.9,2.1,1.2c1.4,0.7,3,0.7,4.4,1.4c0.4,0.2,0.9,0.1,1.2,0.2s1.3-0.7,1.3,0.5c0,0.1,0.5,0.2,0.6,0.1c1.09-0.41,2.3-0.3,3.3,0.3c0.7,0.3,1.4-0.2,2.1-0.1c2.1,0.1,4-0.7,6-1.2c0.7-0.2,0.9-1.1,1.8-1.1c-0.26,1.03-0.91,1.92-1.8,2.5c-0.1,0.1-0.7,0.3-0.1,0.6c0.3,0.1,0,0.2-0.1,0.4c-0.85,0.88-1.75,1.72-2.7,2.5c-1.49,0.94-2.84,2.08-4,3.4c-0.74,0.99-1.61,1.86-2.6,2.6c-0.5,0.3,0,0.9-0.4,1.2c-0.78,0.83-1.74,1.48-2.8,1.9c-3.4,1.2-6.8,0.9-10.2,0.5c-4.07-0.59-8.09-1.53-12-2.8c-3.1-0.9-6-2.1-9.2-2.7c-3.48-0.59-7.05-0.31-10.4,0.8c-1.2,0.49-2.37,1.05-3.5,1.7c-0.3,0.1-0.5,0.5-0.9,0.3s0-0.5,0.1-0.8c-0.05-0.63,0.17-1.24,0.6-1.7c0.18-0.22,0.15-0.54-0.06-0.72c-0.04-0.03-0.09-0.06-0.14-0.08c-0.8-0.3-0.4-0.6-0.2-1c1.87-3.33,4.23-6.37,7-9c0.8-0.8,1.8-1.2,2.4-2c1.1-1.3,2.6-1.8,3.9-2.7c1.53-0.95,3.3-1.43,5.1-1.4c2.3-0.15,4.62-0.05,6.9,0.3c0.8,0.1,1.1-0.2,1.2-0.9c0.06-1.41,0.23-2.81,0.5-4.2c0.3-1.8,0.5-3.6,0.9-5.4l0.9-5.4v-0.1c0.2-1.4,0.2-1.4-1.3-1.1c-2.57,0.42-5.02,1.37-7.2,2.8c-1.37,0.74-2.33,2.07-2.6,3.6c-0.1,0.6-0.5,1.1-0.6,1.8c0,0.1,0.1,0.4-0.2,0.5c0-0.4-0.6,0-0.6-0.5c0-0.2-0.1-0.3-0.1-0.5c-0.15-1.9-0.15-3.8,0-5.7c0.19-0.84,0.5-1.64,0.9-2.4c0.9-2.7,1.4-5.6,3.5-7.9c0.4-0.5-0.1-0.4-0.2-0.6c-2.1-1.5-4.6-2.3-6.5-4.1c-3.9-3.6-7.6-7.4-10.2-12c-2.11-3.38-3.12-7.32-2.9-11.3c0.07-1.3,0.03-2.6-0.1-3.9c-0.1-2.2,0.9-4.1,1.4-6.2c0.3-1.2,1.1-2.2,1.3-3.3s1.2-1.9,1.4-3.1c0.1-0.4,0.8-0.7,0.9-1.1c1.2-3.2,4.3-4.5,6.7-6.5c4.9-4.1,10.8-6.2,16.9-7.5c1.3-0.3,2.6,0,3.8-0.6c0.4-0.2,0.9,0.1,1.4,0.2c0.68,0.21,1.39,0.28,2.1,0.2c1.51-0.39,3.11-0.21,4.5,0.5C99.8,1.91,99.9,1.81,100.1,1.81L100.1,1.81z M77,36.11c-0.1-0.2-0.2-0.2-0.2-0.3s-0.1-0.3-0.1-0.4c0.3-1.6,0.5-3.4,1.7-4.6c1.7-1.8,3.4-3.4,5.1-5.2c3.7-3.9,8.4-5.4,13.6-5.4c0.6,0,0.8-0.1,1-0.7c0.6-1.9,0.9-3.8,1.5-5.7c0.1-0.3,0.1-0.5-0.2-0.6c-1.49-0.66-3.08-1.06-4.7-1.2c-1.55,0.03-3.08,0.37-4.5,1c-5.3,1.5-10.08,4.44-13.8,8.5c-2.87,3.35-5.07,7.22-6.5,11.4c-0.56,1.36-0.84,2.83-0.8,4.3c0,0.2-0.2,0.5,0.2,0.6s0.5,0.2,0.2,0.5s-0.1,0.6-0.1,0.8c-0.1,2.1,0.7,3.9,1.2,5.8c1.5,5,3.9,9.4,8.6,12.3c0.3,0.2,1.2,0.2,0.6,1c-0.1,0.2,1.7,1.1,2.1,0.9c2.41-1.09,4.97-1.8,7.6-2.1c0.6-0.1,0.9-0.5,0.8-1c-0.06-0.81,0.04-1.63,0.3-2.4c0.4-1.7,1.1-3.4,1.4-5.1c0.9-4.1,1.7-8.2,2.5-12.3c0.3-1.4,0.7-2.8,1-4.3c0.1-0.4,0.2-0.8-0.4-0.9c-3.9-1.32-8.13-1.28-12,0.1c-1,0.4-2.3,0.7-2.9,1.6C79.4,33.91,77.8,34.51,77,36.11z M107.1,27.01c-2.6,9.8-4.5,19.7-6.2,29.7C103.2,46.81,105,36.91,107.1,27.01z M80.6,10.51c2.47-1.24,5.09-2.15,7.8-2.7c-1.54-0.08-3.08,0.19-4.5,0.8c-0.2,0.1-0.5,0.2-0.7-0.1c-0.1-0.1,0.4-0.4-0.1-0.3c-0.2,0-0.6,0.1-0.6,0.4c-0.1,0.9-0.4,0.9-1.1,0.4c-0.4-0.3-0.6,0.1-0.9,0.2s-0.2,0.3,0,0.5C81.1,9.91,80.4,10.11,80.6,10.51z M122,48.51c-0.02-2.56-0.35-5.12-1-7.6C121.1,43.47,121.43,46.01,122,48.51z M137.4,91.51c0.05,0.63,0.05,1.27,0,1.9c-0.1,0.7,0.5,1.5,0.8,2.2c0.1,0.2,0.2,0.6,0.5,0.5s0.2-0.5,0.1-0.8C138.4,94.11,137.9,92.81,137.4,91.51L137.4,91.51z M89.1,7.61c1.54,0.07,3.09-0.06,4.6-0.4C92.2,7.11,90.6,6.71,89.1,7.61z M77,12.21c0.82-0.32,1.56-0.8,2.2-1.4c-0.2,0.1-0.5,0.1-0.8,0.2c0.21-0.44,0.48-0.84,0.8-1.2c-0.7,0.3-1.3,0.6-1.9,0.9c-0.1,0.1-0.2,0.2-0.2,0.3s0.2,0.2,0.4,0.2s0.3-0.3,0.5,0C77.8,11.61,77.3,11.71,77,12.21z M133.7,99.91c-0.24-1.23-0.68-2.41-1.3-3.5C132.5,97.71,132.6,99.01,133.7,99.91z M123.8,29.41c0,1.2,0.1,2.4,0.1,3.7C123.8,31.91,124.8,30.61,123.8,29.41z M123.7,8.21c0.8-0.6,1.5-1.2,2.3-1.8C124.96,6.55,124.08,7.24,123.7,8.21z M104.6,15.71c-0.3-0.6-0.9-0.5-1.2-0.8c0,0-0.2,0-0.2,0.1v0.4C103.6,15.51,104,15.91,104.6,15.71z M135.9,64.41c-0.08,0.12-0.11,0.26-0.1,0.4l2.4,9.6C137.63,71.03,136.87,67.69,135.9,64.41L135.9,64.41z M115.7,45.91c-0.4-2.5-0.7-4.8-1-7.1C114.65,41.21,114.99,43.61,115.7,45.91z M125,92.81c-0.4-2-1-4-1.5-6C123.75,88.86,124.25,90.88,125,92.81z M116.7,55.41l-0.9-5.7C115.76,51.65,116.06,53.58,116.7,55.41z M117.9,60.91c-0.2-1.1-0.5-2.3-0.8-3.4C117.12,58.69,117.39,59.85,117.9,60.91z"/></svg>