<?xml version="1.0" encoding="iso-8859-1"?>
<!-- Generator: Adobe Illustrator 18.1.1, SVG Export Plug-In . SVG Version: 6.00 Build 0)  -->
<svg version="1.1" id="Capa_1" xmlns="http://www.w3.org/2000/svg" xmlns:xlink="http://www.w3.org/1999/xlink" x="0px" y="0px"
	 viewBox="0 0 512 512" style="enable-background:new 0 0 512 512;" xml:space="preserve">
<g>
	<g>
		<path style="fill:#010002;" d="M369.454,262c-1.332-7.333-5.5-13-12.5-17s-13.5-4.333-19.5-1l-50,22v-88l87-135
			c3.334-5.333,4.334-10.833,3-16.5c-1.332-5.667-4.5-10-9.5-13s-10.332-4-16-3s-9.837,4.167-12.5,9.5l-72,115h-43.999
			c-2.667,0-5.333,0.667-8,2l-76,29l-39-59c-2.667-4.667-7-7.667-13-9s-11.5-0.333-16.5,3s-8,7.833-9,13.5s-0.167,11.167,2.5,16.5
			l49,73c6.667,10,15.667,12.667,27,8l55-22v97l-75,168c-3.333,6-3.667,12.167-1,18.5s7.333,11.333,14,15s13.5,4.667,20.5,3
			s11.833-5.833,14.5-12.5l61-139c4.668,1.333,10.334,2,17,2c5.333,0,10.333-0.667,14.999-2l69-32l15,60c1.334,6.667,5,11.667,11,15
			s12.334,4.167,19,2.5c6.668-1.667,11.834-5.333,15.5-11c3.668-5.667,4.5-11.833,2.5-18.5L369.454,262z"/>
		<path style="fill:#010002;" d="M308.454,226v16c23.334-12,44.834-31,64.5-57c19.668-26,34.668-52.167,45-78.5
			c10.334-26.333,18.334-49.333,24-69c5.668-19.667,8.5-32.167,8.5-37.5h-14c-2.668,17.333-8.334,39.333-17,66
			s-23.166,56.834-43.5,90.5C355.622,190.167,333.122,213.334,308.454,226z"/>
		<path style="fill:#010002;" d="M235.955,127c10.333,0,19.167-3.667,26.499-11c7.334-7.334,11-16.167,11-26.5
			c0-10.335-3.666-19.168-11-26.5c-7.333-7.333-16.166-11-26.499-11s-19.333,3.667-27,11s-11.5,16.167-11.5,26.5
			s3.833,19.167,11.5,26.5C216.622,123.333,225.622,127,235.955,127z"/>
		<polygon style="fill:#010002;" points="267.454,512 287.454,512 287.454,342 267.454,358 		"/>
	</g>
</g>
<g>
</g>
<g>
</g>
<g>
</g>
<g>
</g>
<g>
</g>
<g>
</g>
<g>
</g>
<g>
</g>
<g>
</g>
<g>
</g>
<g>
</g>
<g>
</g>
<g>
</g>
<g>
</g>
<g>
</g>
</svg>
